<?xml version="1.0" encoding="utf-8"?>
<!-- Generator: Adobe Illustrator 26.3.0, SVG Export Plug-In . SVG Version: 6.00 Build 0)  -->
<svg version="1.1" id="Calque_1" xmlns="http://www.w3.org/2000/svg" xmlns:xlink="http://www.w3.org/1999/xlink" x="0px" y="0px"
	 viewBox="0 0 100 100" style="enable-background:new 0 0 100 100;" xml:space="preserve">
<path d="M87.8,24L54.1,5.1c-2.6-1.4-5.7-1.4-8.3,0L12.2,24C9.6,25.5,8,28.2,8,31.1v37.9c0,2.9,1.6,5.6,4.2,7.1l33.7,18.9
	c1.3,0.7,2.7,1.1,4.1,1.1s2.9-0.4,4.1-1.1L87.8,76c2.6-1.4,4.2-4.2,4.2-7.1V31.1C92,28.2,90.4,25.5,87.8,24z M50,74
	c-13.2,0-24-10.8-24-24s10.8-24,24-24c7.6,0,14.5,3.5,19.1,9.5l-8.8,5.1C57.7,37.7,53.9,36,50,36c-7.7,0-14,6.3-14,14s6.3,14,14,14
	c3.9,0,7.7-1.7,10.3-4.6l8.8,5.1C64.5,70.5,57.6,74,50,74z M74,52h-4v4h-4v-4h-4v-4h4v-4h4v4h4V52z M88,52h-4v4h-4v-4h-4v-4h4v-4h4
	v4h4V52z"/>
<rect x="57.2" y="42.3" width="32.5" height="16.3"/>
</svg>
