<?xml version="1.0" encoding="utf-8"?>
<!-- Generator: Adobe Illustrator 26.3.0, SVG Export Plug-In . SVG Version: 6.00 Build 0)  -->
<svg version="1.1" id="Calque_1" xmlns="http://www.w3.org/2000/svg" xmlns:xlink="http://www.w3.org/1999/xlink" x="0px" y="0px"
	 viewBox="0 0 128 128" style="enable-background:new 0 0 128 128;" xml:space="preserve">
<style type="text/css">
	.st0{fill:#1D1D1B;}
</style>
<path class="st0" d="M26.2,107.8V71.3l7,39.4l11.4,5.7L52,83.7v35.9l12.9,6.3V65.3l-19.5-9.2L39.1,85l-6.2-34.8l-19.4-9.3v60.6
	L26.2,107.8z"/>
<path class="st0" d="M66.6,65.3L87,54.7v43.9L115.3,84l0.1,16.5l-48.7,25.6L66.6,65.3z"/>
<path class="st0" d="M58.4,1.5L44,14.3c0,0,28.2,14.5,31.6,16.2c3.4,1.7,8.3,5,3,9.9c-5.3,4.9-11.1,4.2-15,2.2
	c-3.9-2-33.2-16.7-33.2-16.7L15.5,38.5c0,0,28.7,14.6,33.4,17.1c4.7,2.5,22.4,8.7,39.1-4.3c16.7-13,14.3-17.8,14.3-18.7
	c0-0.9-0.4-5.8-3.3-8.8c-2.9-3-11.3-7.4-14.9-9.2C80.7,12.7,58.4,1.5,58.4,1.5L58.4,1.5z"/>
</svg>
