<?xml version="1.0" encoding="utf-8"?>
<!-- Generator: Adobe Illustrator 26.3.0, SVG Export Plug-In . SVG Version: 6.00 Build 0)  -->
<svg version="1.1" id="Calque_1" xmlns="http://www.w3.org/2000/svg" xmlns:xlink="http://www.w3.org/1999/xlink" x="0px" y="0px"
	 viewBox="0 0 48 48" style="enable-background:new 0 0 48 48;" xml:space="preserve">
<path d="M44,23.6c0.1-4.3-0.9-9.3-2.9-15.3l-1.6-4.7l-2.1,4.4c-0.1,0.2-0.2,0.5-0.4,0.7C33.5,5.8,29,4,24,4C13,4,4,13,4,24
	s9,20,20,20s20-9,20-20C44,23.9,44,23.8,44,23.6z M15.7,38.4C15.4,38.8,15,39,14.5,39c-0.8,0-1.5-0.7-1.5-1.5s0.7-1.5,1.5-1.5
	c0.3,0,0.7,0.1,0.9,0.3C16.1,36.9,16.2,37.8,15.7,38.4z M39.4,32.6c-3.1,4.3-8.7,4.5-13.9,4.4h-6.8h-1.9c4.4-1.6,7.1-2,9.8-3.4
	c5.1-2.7,10.1-8.5,11.1-14.6c-1.9,5.8-7.8,10.8-13.1,12.9c-3.7,1.4-10.2,2.7-10.2,2.7l-0.3-0.1C9.6,32.3,9.4,22.2,17.6,19
	c3.6-1.4,7-0.6,10.9-1.6c4.1-1,8.9-4.2,10.8-8.4C41.5,15.7,44.1,26.1,39.4,32.6z"/>
</svg>
